<svg xmlns="http://www.w3.org/2000/svg" viewBox="0 0 550.28 223.96"><defs><style>.cls-1{fill:#293896;}</style></defs><g id="Layer_2" data-name="Layer 2"><g id="Layer_1-2" data-name="Layer 1"><path class="cls-1" d="M33.94,135.56l-2.75,29.22H14.32L0,151.64,13.54,1.57H41L54.14,15.89,66.31,164.78H49.43L35.11,151.64Zm3.92,13.14H50L38.25,4.51h-22L3.14,148.7H15.3l3.14-35.9H35.11Zm-9.61-123,5.88,75.92H19.42L26.09,25.7Z"/><path class="cls-1" d="M149.76,134l11.18,14.12v16.67H116.41l-12.75-13.14V134.57L128,32.37h-7.46L108.17,19.23V1.57h41.59l11.18,14.32V32L137,134Zm-31,2.94L146.82,17.85V4.51H111.11V16.28h23.74L106.6,134.77V148.7h40.22V136.93Z"/><path class="cls-1" d="M196.34,1.57h51.59l13.14,14.52V33.55H244.59V164.78H227.14l-14.32-13.14V33.55h-2.16L196.34,20.4Zm2.94,15.89h16.48V148.7h12.75V17.46H245V4.51H199.28Z"/><path class="cls-1" d="M297.45,1.57H333L346.1,15.89V32.37H329.22V67.29H333L346.1,81.61V98.09H329.22V134H333l13.15,14.32v16.47H311.77l-14.32-13.14Zm2.94,147.13H330V136.93H313.14V82H330V70.23H313.14V16.28H330V4.51H300.39Z"/><path class="cls-1" d="M446.62,140.46c0,14.12-12.56,25.7-27.86,25.7-17.06,0-32.37-19-32.37-40.22V32.17C386.39,10.4,394,0,410.13,0c9.61,0,14.91,3.73,30.41,21,4.31,4.9,6.08,9,6.08,14.52V64.74h-15.7L417.78,51.59V91.22h15.69l13.15,13.53ZM430.53,21.78c0-10.4-9-18.84-20-18.84-10.39,0-17.65,5.69-19.61,14.91-1.57,7.26-1.57,7.26-1.57,60.81V102.4c0,32.17,0,32.17,3.53,38.06,3.53,6.28,9.81,9.61,17.26,9.61,12.16,0,20.4-9.42,20.4-23.34V94.16H417.78V127.9c0,6.09-3.53,10.4-8.43,10.4-4.52,0-7.46-3.73-7.46-9.22V26.88c0-7.85,2.75-12.17,7.85-12.17,4.31,0,8,3.93,8,8.83V48.65h12.75Z"/><path class="cls-1" d="M517.91,135.56l-2.75,29.22H498.3L484,151.64,497.51,1.57H525l13.15,14.32,12.16,148.89H533.41l-14.32-13.14Zm3.93,13.14H534L522.23,4.51h-22L487.11,148.7h12.17l3.13-35.9h16.68Zm-9.62-123,5.89,75.92H503.39l6.68-75.92Z"/><path class="cls-1" d="M61.47,217.11c0,.14,0,.28,0,.43,0,1.89-.14,3.29-.14,4.83,0,1.15-.11,1.22-.79,1.22-1,0-2.4-.07-3.37,0-.36,0-.46-.25-.46-.68-.26-4.33-.08-18-.08-20.21,0-1.5,0-4.87,0-5,.11-.57.18-1,1-1s2,0,2.9,0,.93.1,1,.89c.08,1.33-.28,7.89-.24,9.89a.46.46,0,0,0,.07.18.27.27,0,0,0,.25-.11c.46-.79,5.26-9.56,5.73-10.46a.94.94,0,0,1,.89-.39c.79,0,3.26,0,4,0a.31.31,0,0,1,.32.36,8.23,8.23,0,0,1-.5,1.29c-.94,1.64-1.58,2.79-2.73,4.62a57.33,57.33,0,0,0-2.79,5,4.75,4.75,0,0,0-.36,1.22.89.89,0,0,0,.11.5c.72,1.19,1.32,2.51,2,3.73.25.46,4.51,8.1,4.84,8.56s1,1.54-.22,1.54-2.29-.07-3.51,0a2.46,2.46,0,0,1-.54,0c-.64,0-6-10.46-7.16-12a.52.52,0,0,0-.25-.11s-.11.14-.11.25C61.3,212.45,61.47,215.85,61.47,217.11Z"/><path class="cls-1" d="M95,214.35c0,1.72.11,8.27.07,8.52a1,1,0,0,1-1,.61c-1.18,0-2.29,0-3.47.11a.4.4,0,0,1-.43-.36,10.74,10.74,0,0,1,0-1.5c.07-1.44-.07-8-.11-9.39s.08-11.36.08-14.87c0-.68.28-.85,1-.82,1,0,1.51,0,2.55,0,.71,0,1.25,0,1.25,1.32s.07,2.62.07,3.87C94.92,205.93,94.88,210.26,95,214.35Z"/><path class="cls-1" d="M116.08,219.68c-.07-3.22.11-15.22.11-17.8,0-.11,0-.21,0-.32-.07-.4-.32-.5-.68-.5-.57,0-2.61,0-3.11,0-.86,0-.83-1-.83-2,0-1.58,0-2.3.86-2.3,1.18,0,2.15,0,3.33,0,2.4,0,8.24,0,8.85,0,.86,0,.57,1.36.57,2.15s.18,2.19-.57,2.19h-3.15c-.72,0-.9.18-.9.71l-.1,20.07c0,.61.17,1.75-.51,1.75h-3.22c-.5,0-.54-.07-.54-.57C116.12,221.91,116.12,220.8,116.08,219.68Z"/><path class="cls-1" d="M155.79,201a.29.29,0,0,1-.35.29,11,11,0,0,0-4.84.18c-2.76.89-4,3.9-4.44,6.52a12.93,12.93,0,0,0,.39,6.08,7.74,7.74,0,0,0,3.23,4.73,6.75,6.75,0,0,0,3.18.54c1.11,0,2.91-.64,2.91.22,0,.64,0,.61,0,1.25l-.11,2a.48.48,0,0,1-.22.36,1.2,1.2,0,0,1-.5.18c-3.9.61-8.45-.54-10.92-3.8a12.7,12.7,0,0,1-2.3-6.52,21.15,21.15,0,0,1,.36-7.48,13.13,13.13,0,0,1,1.11-3,11.6,11.6,0,0,1,9.24-6c.87,0,3.26-.18,3.26,1.14C155.79,198.8,155.83,199.77,155.79,201Z"/><path class="cls-1" d="M183.08,213c0-.58-.11-.65-.61-.65-1.58,0-3.3,0-4.87,0-.43,0-.54.14-.58.61,0,1.26,0,2.47,0,3.73,0,1.61.08,3.65.08,5.26,0,2-.43,1.61-2.12,1.61s-2.65.11-2.65-.82l.11-21.24c0-1.11-.11-2.62-.11-3.73a3.33,3.33,0,0,1,.07-.54c.11-.36.22-.46.58-.5,1.07-.07,2.18.11,3.26,0,.46,0,.68.07.86.61.1.35-.18,6.3-.18,8.59v.22c.1,1.61-.29,1.47,1.47,1.61,1.21.11,2.86,0,4,0,.47,0,.51,0,.51-.5,0-1-.15-7-.11-7.85v-1.07c0-1.25.07-1.61,1.25-1.61a13.35,13.35,0,0,1,2.37-.07c.35,0,.82.1,1,.43.11.18.18,4.15.18,6.09,0,4.29-.18,16.3,0,17.87,0,.72.4,2.47-.75,2.51s-2.08-.11-3.12,0c-.21,0-.53.11-.64-.14a2,2,0,0,1-.07-.79v-4.87S183.08,214.6,183.08,213Z"/><path class="cls-1" d="M204.17,216.25c-.08-2,.07-11,.07-13.51,0-1.47,0-2.94,0-4.37,0-1.83.15-1.72,1.65-1.72,1,0,5.34,0,6.41,0s1.33-.08,2.4-.11c.65,0,.83.11.9.68.11,1,0,2.11.07,3.15,0,.68-.18.64-.86.72l-5.05,0c-.54,0-.68.15-.72.72a22.51,22.51,0,0,0-.14,4.34c0,.46.11.53.61.53,1.5-.11,2.22.11,3.76,0a11.67,11.67,0,0,1,1.18-.07c.61,0,.83.21.9.82l.11,1.08c0,.75-.08.79-.08,1.54a1,1,0,0,1-1.21,1.15h-4.48c-.72,0-.79.25-.79,1,0,1.4,0,3.15,0,4.51,0,1.69-.25,1.47,1.37,1.43,1,0,3.36.08,3.87,0a1.4,1.4,0,0,1,1.53,1.54,14.58,14.58,0,0,0,0,1.79c0,1.08-.25,1.47-1,1.62a11.3,11.3,0,0,1-1.93.1c-1.94.07-3.87-.07-5.8,0a9.23,9.23,0,0,1-2.22-.21c-.36-.08-.47-.18-.47-.57-.07-1.15-.14-2.3-.18-3.45,0-.93,0-1.86,0-2.75Z"/><path class="cls-1" d="M247.46,222.52c0,1.07-.39,1-1.11,1-1.07,0-2.58.18-2.9-.17s-5.59-13-6.34-14.66c-.07-.14-.25-.5-.39-.43s-.11.33-.11.47c0,1.25.18,12.07.18,13.79,0,.86,0,1-.76,1h-1.79a10.74,10.74,0,0,0-1.5,0c-.36,0-.54-.11-.57-.46v-2.84c.07-3,0-20.85,0-22.17,0-1.15.32-1.36,1.46-1.36.79,0,1.58,0,2.37,0a.49.49,0,0,1,.54.36c1,2.26,5.08,12.61,5.73,13.87a5.13,5.13,0,0,0,.71,1.36h0c.14-.15.11-.86.11-1.08,0-.54-.29-13.11-.29-13.36s-.11-.68.07-.93.58-.18.76-.22c1-.07,2.18,0,3.18,0,.51,0,.47.36.58.83S247.46,221.91,247.46,222.52Z"/><path class="cls-1" d="M289.06,201.16a5.24,5.24,0,0,1,0,1.12,9.29,9.29,0,0,1-1,3.18c-.47.93-1.18,1.69-1.68,2.58a3.42,3.42,0,0,0,.39,2.72c.82,1.33,2.15,4.56,2.54,4.56s.58-2.87,1.19-2.87c1.21,0,2,0,2.79,0,1.86,0-.54,5.13-.82,6.1-.11.53-.33.71-.58,1.5-.1.32.29.79.47,1.07.32.51.57,1.11.93,1.62.14.17.57.71,0,.71h-3.44c-.61,0-.72-.71-.94-.57a8.63,8.63,0,0,1-10.85-2.11,8,8,0,0,1-1.4-6,12.88,12.88,0,0,1,2.87-5.59c.18-.21.46-.46.64-.67a1,1,0,0,0,.11-1c-1-2.44-2.65-5.37-1.54-8.06a5.29,5.29,0,0,1,5.09-2.94,5.43,5.43,0,0,1,4.8,3.26A5.87,5.87,0,0,1,289.06,201.16Zm-8.17,14.23a6,6,0,0,0,.51,2.22c.78,1.58,3.51,2.65,4.9,1.25.11-.07.36-.36.08-.89-.93-1.72-2.15-4.09-3.37-6.13a.14.14,0,0,0-.22,0l-1,1.14A4.37,4.37,0,0,0,280.89,215.39Zm1.37-14a9.83,9.83,0,0,0,.86,3c.28.47,1,.26,1.21,0a5.28,5.28,0,0,0,1.08-3c0-.65-.54-1.22-1.61-1.22A1.39,1.39,0,0,0,282.26,201.38Z"/><path class="cls-1" d="M322.07,199.48c0-.75.14-1.36.14-2.11,0-.58.26-.79.79-.79,1.54.07,3,0,4.52.11a7.54,7.54,0,0,1,4.37,1.68,6.06,6.06,0,0,1,1.43,2.33,9.4,9.4,0,0,1,.68,4.23c-.18,1.64-1.5,2.76-2.44,4.08-.07.07,1.47,1,1.58,1.18a8.22,8.22,0,0,1,1.54,3.48,9.1,9.1,0,0,1-.14,4.37,7.07,7.07,0,0,1-2.9,4,9.23,9.23,0,0,1-5.16,1.15c-1.08,0-2.19-.07-3.23,0a2.55,2.55,0,0,1-.71-.14.62.62,0,0,1-.43-.57,11.83,11.83,0,0,0,0-1.19C322,219.68,322.07,201.2,322.07,199.48Zm4.41,6.52s0,.82,0,1.25a.34.34,0,0,0,.47.25c.43-.17.82-.42,1.25-.64a2.51,2.51,0,0,0,1.26-1.47,4.54,4.54,0,0,0,.21-1.68,3.46,3.46,0,0,0-1.61-2.65,2.12,2.12,0,0,0-.93-.33c-.47-.1-.72.11-.68.54C326.48,202.45,326.44,205.61,326.48,206Zm3.58,9.49v-.57a6.14,6.14,0,0,0-.72-2.65,2,2,0,0,0-2-.93c-.57.11-.71.21-.75.82a16.37,16.37,0,0,1,0,2.33c0,1.18,0,2.26,0,3.37a2.43,2.43,0,0,0,.15.72.41.41,0,0,0,.32.21,3.18,3.18,0,0,0,3-2.47C330,216,330.06,215.67,330.06,215.49Z"/><path class="cls-1" d="M354.66,223.3c-1.11,0-1.94,0-2.83,0-.14,0-.32,0-.43,0s1.5-7.52,1.75-8.56c.72-2.93,1.29-5.8,1.94-8.78.5-2.36,1.79-8.06,1.86-8.56s0-.68.54-.68c1.25.07,2.54,0,3.76,0,.57,0,.36,0,.61.68.18,1.08,4.26,20.46,4.41,20.89.32,1,.39,2,.71,3,.11.29.68,2-.14,2-.61,0-2.69,0-3.26,0s-.47,0-.61-.4c-.22-.6-.4-1.35-.61-2l-.25-.83a.68.68,0,0,0-.72-.5,26.69,26.69,0,0,0-4.47,0c-.36.08-.47.11-.51.54s-.28,3.12-1,3.12A3.53,3.53,0,0,1,354.66,223.3Zm4.69-8.13c.32,0,.65,0,1,0,.64,0,.79,0,.46-1.29-.32-1.47-.53-2.62-.86-4-.14-.43-.28-1.5-.42-1.93,0,0-.11-.11-.18-.11s-.11.07-.15.14c-.21,1-1.18,5.3-1.36,6.09-.25,1-.21,1,.79,1Z"/><path class="cls-1" d="M388.61,217.11c0,.14,0,.28,0,.43,0,1.89-.14,3.29-.14,4.83,0,1.15-.11,1.22-.79,1.22-1,0-2.4-.07-3.37,0-.36,0-.46-.25-.46-.68-.25-4.33-.07-18-.07-20.21,0-1.5,0-4.87,0-5,.11-.57.18-1,1-1s2,0,2.9,0,.93.1,1,.89c.07,1.33-.29,7.89-.25,9.89a.46.46,0,0,0,.07.18.26.26,0,0,0,.25-.11c.46-.79,5.27-9.56,5.73-10.46a1,1,0,0,1,.9-.39c.78,0,3.26,0,3.94,0a.31.31,0,0,1,.32.36,7.35,7.35,0,0,1-.5,1.29c-.93,1.64-1.58,2.79-2.72,4.62-1,1.61-1.94,3.33-2.8,5a4.75,4.75,0,0,0-.36,1.22.89.89,0,0,0,.11.5c.72,1.19,1.33,2.51,2,3.73.25.46,4.52,8.1,4.84,8.56s1,1.54-.22,1.54-2.29-.07-3.51,0a2.46,2.46,0,0,1-.54,0c-.64,0-6-10.46-7.16-12a.48.48,0,0,0-.25-.11s-.11.14-.11.25C388.43,212.45,388.61,215.85,388.61,217.11Z"/><path class="cls-1" d="M417.21,216.25c-.07-2,.08-11,.08-13.51,0-1.47,0-2.94,0-4.37,0-1.83.14-1.72,1.65-1.72,1,0,5.34,0,6.41,0s1.33-.08,2.4-.11c.65,0,.83.11.9.68.1,1,0,2.11.07,3.15,0,.68-.18.64-.86.72l-5.05,0c-.54,0-.68.15-.72.72a21.74,21.74,0,0,0-.14,4.34c0,.46.11.53.61.53,1.5-.11,2.22.11,3.76,0a11.67,11.67,0,0,1,1.18-.07c.61,0,.82.21.9.82l.1,1.08c0,.75-.07.79-.07,1.54a1.05,1.05,0,0,1-1.22,1.15h-4.47c-.72,0-.79.25-.79,1,0,1.4,0,3.15,0,4.51,0,1.69-.25,1.47,1.36,1.43,1,0,3.37.08,3.87,0a1.4,1.4,0,0,1,1.54,1.54,14.58,14.58,0,0,0,0,1.79c0,1.08-.25,1.47-1,1.62a11.35,11.35,0,0,1-1.93.1c-1.94.07-3.87-.07-5.81,0a9.28,9.28,0,0,1-2.22-.21c-.36-.08-.46-.18-.46-.57-.07-1.15-.15-2.3-.18-3.45,0-.93,0-1.86,0-2.75Z"/><path class="cls-1" d="M449.66,220.9c0,1.4.28,2.69-.5,2.69-1,0-1.65,0-2.66,0-.25,0-.53,0-.78,0-.43,0-.51-.11-.51-.57,0-1.58.08-12.54.08-16.7,0-2.72-.11-5.48,0-8.24v-.43a.89.89,0,0,1,1-.93c1.22,0,1.9,0,2.86,0,1.11,0,2.19-.07,3.3,0a6.27,6.27,0,0,1,4.55,2.33,8.83,8.83,0,0,1,1.72,6.84c-.32,2.4-1.86,4-3.58,5.52-.08.1-.61.36-.54.5.07.32,2.22,4.47,2.54,5.19a62.05,62.05,0,0,1,2.8,5.8c.1.4,0,.69-.47.69l-3.94,0c-.21,0-.47.07-.61-.14s-.5-1.26-.68-1.65c-1.29-2.72-2.54-5.52-4-8.31a.23.23,0,0,0-.25-.18c-.14,0-.21.21-.25.32C449.66,214.1,449.66,220,449.66,220.9Zm0-14s0,1.11,0,1.69c0,.86,1,.68,1.58.53a3.48,3.48,0,0,0,2.15-1.5c1-1.69,1.11-4.69-.68-5.91-.61-.43-2-.93-2.69-.43-.5.39-.32,1.47-.36,2Z"/><path class="cls-1" d="M482.85,212.63a2.75,2.75,0,0,0-.36-1.61c-.68-1.61-4.51-10.14-5.87-12.72a2.29,2.29,0,0,1-.22-.5c-.1-.47-.07-1,.5-1,.86,0,1.51,0,2.41,0,.68,0,1.5-.07,2,.5a2.29,2.29,0,0,1,.22.5c.39,1.4,2.93,7.7,3.33,8.35.18.25.32.25.43,0,1.25-2.83,2.51-5.63,3.72-8.46a1.3,1.3,0,0,1,1.33-.89c1,0,2.76-.18,3.19.21.25.22.1.65,0,.9-.53,1.76-5.3,12.39-5.62,12.93a3.33,3.33,0,0,0-.36,1.65c-.14,3.4-.14,7-.14,10.39,0,.25,0,.79-.61.79h-3.3a.58.58,0,0,1-.64-.54Z"/></g></g></svg>