<svg xmlns="http://www.w3.org/2000/svg" viewBox="0 0 169.58 158.66"><defs><style>.cls-1{fill:#293896;}</style></defs><g id="Layer_2" data-name="Layer 2"><g id="Layer_1-2" data-name="Layer 1"><path class="cls-1" d="M23.84,23.64c-.13-2.4.05-13.17.05-16.17,0-1.77,0-3.52,0-5.24C24,0,24.14.17,25.9.17c1.25,0,6.44,0,7.73,0S35.21,0,36.5,0c.77,0,1,.13,1,.81.17,1.25,0,2.54.09,3.78.08.82-.17.77-1,.86l-6.05,0c-.65,0-.77.17-.86.86a30,30,0,0,0-.17,5.19c0,.56.13.64.73.64,1.84-.12,3.6.13,5.45,0,.43,0,0-.08.47-.08.73,0,1,.26,1.07,1,0,.43.13.85.13,1.28,0,.9-.09.94-.09,1.85s.35,1.5-.55,1.37H30.45c-.81,0-.94.3-.94,1.2,0,1.67,0,3.78-.05,5.41,0,2,.05,2.19.05,3.6a16.51,16.51,0,0,0,0,2.15c0,1.59,0,2-2.32,2.06a10.73,10.73,0,0,1-2.66-.26c-.47-.09-.56-.21-.6-.69-.08-1.37-.13-2.74-.17-4.12,0-1.11,0-2.22,0-3.3Z"/><path class="cls-1" d="M45.85,32.09c-1.33,0-2.32,0-3.39,0-.18,0-.39,0-.52,0s1.8-9,2.1-10.25c.86-3.52,1.55-6.95,2.32-10.52.6-2.83,2.15-9.65,2.23-10.25s0-.81.65-.81c1.5.08,3,0,4.5,0,.69,0,.43,0,.73.81.22,1.29,5.11,24.5,5.28,25,.38,1.2.47,2.44.86,3.64.13.35.81,2.36-.17,2.36-.73,0-3.22,0-3.91,0-.51,0-.56,0-.73-.48-.26-.72-.47-1.63-.73-2.35l-.3-1a.8.8,0,0,0-.86-.6,31,31,0,0,0-5.36,0c-.43.09-.56.13-.6.64s-.35,3.74-1.2,3.74A4,4,0,0,1,45.85,32.09Zm5.62-9.74c.38,0,.77,0,1.16,0,.77,0,.94,0,.55-1.55-.38-1.76-.64-3.13-1-4.76-.17-.51-.34-1.81-.51-2.32a.37.37,0,0,0-.22-.13s-.12.09-.17.17c-.26,1.25-1.41,6.36-1.63,7.3-.3,1.24-.26,1.24,1,1.24Z"/><path class="cls-1" d="M71.45.3,73,.17c.65,0,1.12.21,1.25.9C74.8,4.16,78,18.32,79,18.32s4-15.49,4.2-16.69c.09-.47.3-1.37.78-1.37h3c.69,0,1.81-.35,1.89.64.26,3,.69,6.39,1,9.4.39,3.51.82,7,1.24,10.55.3,2.23.73,4.42,1,6.65.22,1.07.43,2.36.61,3.44a3.6,3.6,0,0,1,.12.64c0,.94-.77.69-1.5.77a22.89,22.89,0,0,1-2.49,0c-.51,0-1.24.26-1.5-.34-.13-.3-1.54-14.08-2.23-14.08S82,29.82,81.7,30.81s0,1.59-1.07,1.59-2.1-.09-3.18,0a.77.77,0,0,1-.9-.69C75.52,28,73.38,18,72.56,18c-.51,0-1.8,12.36-1.88,13.34a1.63,1.63,0,0,1-.09.65c-.13.51-.6.47-1,.43a33.22,33.22,0,0,1-3.56,0c-.9-.17-.82-.94-.73-1.76.69-6,1.37-12.19,2.1-18.19.43-3.65.82-7.68,1.25-11.33.12-.86.9-.73,1.54-.73C70.59.34,71,.3,71.45.3Z"/><path class="cls-1" d="M103,21.37c0,2.06.13,9.91.09,10.21a1.16,1.16,0,0,1-1.16.73c-1.42,0-2.75,0-4.17.13a.48.48,0,0,1-.51-.43,12,12,0,0,1,0-1.8c.08-1.72-.09-9.53-.13-11.25s.08-13.6.08-17.8c0-.82.35-1,1.16-1,1.25,0,1.8,0,3,0,.86.05,1.5,0,1.5,1.59s.09,3.13.09,4.64C102.88,11.28,102.84,16.48,103,21.37Z"/><path class="cls-1" d="M107.34,4.46v-3c0-.68.26-1.15.94-1.15h4c.3,0,.43.34.51.6A11.37,11.37,0,0,1,113,3c0,1.11,0,2.27,0,3.43,0,2.66,0,5.36,0,8.37,0,3.56-.26,7.25-.13,10.81v.65c0,.56.17.68.69.72a6.78,6.78,0,0,0,.9,0c1.76-.08,3.52,0,5.28,0a.79.79,0,0,1,.9.81c0,1.16,0,2.24,0,3.44,0,.77,0,1.16-1,1.2s-1.93,0-2.92,0c-3,0-6,.21-9,.09a.39.39,0,0,1-.35-.43c0-1.34,0-2.66,0-4S107.3,7.12,107.34,4.46Z"/><path class="cls-1" d="M132.82,19.31a3.38,3.38,0,0,0-.43-1.94c-.82-1.93-5.41-12.14-7-15.23a2.53,2.53,0,0,1-.26-.6c-.13-.56-.08-1.2.6-1.2,1,0,1.81,0,2.88,0,.81,0,1.8-.09,2.4.6a2.72,2.72,0,0,1,.26.6c.47,1.67,3.52,9.22,4,10,.21.3.39.3.51,0,1.51-3.39,3-6.74,4.47-10.13A1.55,1.55,0,0,1,141.78.3c1.25,0,3.31-.22,3.82.25.3.26.13.78.05,1.08-.65,2.1-6.35,14.85-6.74,15.49a4,4,0,0,0-.43,2c-.17,4.08-.17,8.41-.17,12.45,0,.3,0,.94-.73.94h-4a.69.69,0,0,1-.77-.64Z"/><path class="cls-1" d="M23.73,68a27,27,0,0,1-1,6.91,11.61,11.61,0,0,1-4.38,6.73A11.34,11.34,0,0,1,12.7,83.9c-.3,0-.56,0-.86,0s-.51,0-.81,0a11.7,11.7,0,0,1-5.67-2.28A11.58,11.58,0,0,1,1,74.89,25,25,0,0,1,0,68a26.15,26.15,0,0,1,1.11-8.37,11.82,11.82,0,0,1,10.73-7.94,11.91,11.91,0,0,1,10.77,7.94A26.16,26.16,0,0,1,23.73,68Zm-5.54-4.76a9.81,9.81,0,0,0-3.52-6.1,4.28,4.28,0,0,0-1.11-.6,4.06,4.06,0,0,0-1.72-.34,3.85,3.85,0,0,0-1.67.34,3.78,3.78,0,0,0-1.12.6,9.5,9.5,0,0,0-3.52,6.1,22.28,22.28,0,0,0-.25,7.89c.43,2.36,1.28,5.54,3.51,6.74a7,7,0,0,0,3.05.9,7.17,7.17,0,0,0,3.09-.9c2.23-1.2,3.09-4.38,3.52-6.74A22,22,0,0,0,18.19,63.22Z"/><path class="cls-1" d="M28,57.34c0-1.33-.17-5.15.18-5.41a1.87,1.87,0,0,1,1.07-.17c1.5,0,3.09,0,4.63,0,8.93,0,9.7,7.29,9.7,11.24,0,4.37-2,9.52-9.14,9.52-.34,0-1.54-.12-1.54.48s.17,10.68-.13,10.81a2.92,2.92,0,0,1-1.07.13c-1.46,0-1.46,0-2.92,0-.65,0-.73-.13-.73-.77C28.09,81.37,28.09,59.87,28,57.34ZM33,66.18c0,.47,0,.94,0,1.42a.69.69,0,0,0,.6.64A4.55,4.55,0,0,0,37,66.78c1.2-1.33,1.42-3.82,1.24-5.5C38,59,36.59,56.78,34.1,56.61c-.43,0-1,0-1.12.43a6.16,6.16,0,0,0,0,.86C32.94,59.61,33,65.23,33,66.18Z"/><path class="cls-1" d="M47.94,75.1c-.08-2.4.09-13.17.09-16.17,0-1.77,0-3.52,0-5.24,0-2.19.17-2.06,2-2.06,1.24,0,6.39,0,7.68,0s1.59-.09,2.87-.13c.77,0,1,.13,1.07.82.14,1.24,0,2.53.09,3.77.05.82-.21.77-1,.86l-6,0c-.64,0-.81.17-.86.86A26.51,26.51,0,0,0,53.65,63c0,.56.13.65.73.65,1.8-.13,2.66.12,4.51,0a13.34,13.34,0,0,1,1.41-.09c.73,0,1,.26,1.07,1l.13,1.28c0,.9-.08,1-.08,1.85A1.25,1.25,0,0,1,60,69.05H54.6c-.86,0-1,.3-1,1.2,0,1.68,0,3.78,0,5.41,0,2-.3,1.76,1.63,1.72,1.16,0,4,.08,4.63,0a1.69,1.69,0,0,1,1.85,1.85,16.39,16.39,0,0,0,0,2.14c0,1.29-.3,1.76-1.16,1.93a13.77,13.77,0,0,1-2.31.13c-2.32.09-4.64-.08-7,0a11,11,0,0,1-2.66-.26c-.43-.08-.55-.21-.55-.68-.09-1.38-.18-2.75-.22-4.12,0-1.12,0-2.24,0-3.31Z"/><path class="cls-1" d="M71.36,80.68c0,1.67.35,3.22-.6,3.22-1.24,0-2,0-3.17,0-.3,0-.65,0-1,0-.51,0-.6-.13-.6-.69,0-1.88.09-15,.09-20,0-3.26-.13-6.57,0-9.87v-.52a1.07,1.07,0,0,1,1.16-1.11c1.46,0,2.28,0,3.44,0,1.33,0,2.61-.09,3.94,0a7.56,7.56,0,0,1,5.45,2.79,10.57,10.57,0,0,1,2.06,8.19c-.38,2.88-2.23,4.77-4.29,6.61-.09.13-.73.43-.64.6.08.39,2.66,5.37,3,6.22a73.18,73.18,0,0,1,3.35,7c.13.47,0,.81-.56.81l-4.72,0c-.26,0-.56.09-.73-.18s-.6-1.5-.81-2c-1.55-3.26-3-6.6-4.76-10a.3.3,0,0,0-.3-.22c-.18,0-.26.26-.31.39C71.36,72.53,71.36,79.56,71.36,80.68Zm0-16.73s0,1.33,0,2c0,1,1.25.82,1.89.65a4.18,4.18,0,0,0,2.58-1.81c1.15-2,1.33-5.62-.82-7.08-.73-.51-2.4-1.11-3.22-.51-.6.47-.38,1.76-.43,2.4Z"/><path class="cls-1" d="M91.86,83.56c-1.33,0-2.32,0-3.39,0-.17,0-.39,0-.51,0s1.8-9,2.1-10.26c.86-3.52,1.54-7,2.32-10.51.6-2.83,2.14-9.66,2.23-10.26s0-.81.64-.81c1.5.08,3,0,4.51,0,.68,0,.43,0,.73.81.21,1.29,5.1,24.5,5.27,25,.39,1.2.48,2.44.86,3.64.13.35.82,2.37-.17,2.37-.73,0-3.22,0-3.91,0-.51,0-.55,0-.73-.47-.25-.73-.47-1.63-.72-2.36l-.31-1a.79.79,0,0,0-.85-.6,31.07,31.07,0,0,0-5.37,0c-.43.09-.55.13-.6.65s-.34,3.73-1.2,3.73A5.08,5.08,0,0,1,91.86,83.56Zm5.62-9.74c.39,0,.77,0,1.16,0,.77,0,1,0,.56-1.55-.39-1.76-.64-3.13-1-4.76-.17-.51-.34-1.8-.52-2.32a.34.34,0,0,0-.21-.12s-.13.08-.17.17c-.26,1.24-1.42,6.35-1.63,7.29-.3,1.25-.26,1.25.94,1.25Z"/><path class="cls-1" d="M116.69,79.22c-.09-3.86.13-18.23.13-21.32,0-.13,0-.26,0-.39-.09-.47-.39-.6-.82-.6-.69,0-3.13,0-3.73,0-1,0-1-1.21-1-2.41,0-1.89,0-2.74,1-2.74,1.42,0,2.58,0,4,0,2.88,0,9.87,0,10.6,0,1,0,.69,1.63.69,2.57s.21,2.62-.69,2.62h-3.78c-.86,0-1.07.21-1.07.86l-.13,24c0,.73.22,2.1-.6,2.1h-3.86c-.6,0-.64-.09-.64-.69C116.73,81.88,116.73,80.55,116.69,79.22Z"/><path class="cls-1" d="M131.91,75.1c-.08-2.4.09-13.17.09-16.17,0-1.77-.05-3.52,0-5.24,0-2.19.17-2.06,2-2.06,1.25,0,6.4,0,7.68,0s1.59-.09,2.88-.13c.77,0,1,.13,1.07.82.13,1.24,0,2.53.09,3.77,0,.82-.22.77-1,.86l-6,0c-.65,0-.82.17-.86.86a26.51,26.51,0,0,0-.17,5.19c0,.56.13.65.73.65,1.8-.13,2.66.12,4.5,0a13.71,13.71,0,0,1,1.42-.09c.73,0,1,.26,1.07,1l.13,1.28c0,.9-.08,1-.08,1.85a1.25,1.25,0,0,1-1.46,1.37h-5.37c-.86,0-.94.3-.94,1.2,0,1.68-.05,3.78-.05,5.41,0,2-.3,1.76,1.64,1.72,1.15,0,4,.08,4.63,0a1.68,1.68,0,0,1,1.84,1.85,16.27,16.27,0,0,0,0,2.14c0,1.29-.3,1.76-1.16,1.93a13.83,13.83,0,0,1-2.32.13c-2.32.09-4.63-.08-6.95,0a10.92,10.92,0,0,1-2.66-.26c-.43-.08-.56-.21-.56-.68-.08-1.38-.17-2.75-.21-4.12,0-1.12,0-2.24,0-3.31Z"/><path class="cls-1" d="M168.07,76c-1.2,2.58-2.92,5.11-5.66,6.1a26.74,26.74,0,0,1-9.36,1.37c-3.51,0-3-.56-3-1.85s0-2.35,0-3.56c0-2.87,0-5.79,0-8.67,0-1.15.13-2.57.09-3.73s0-9-.09-11.67a10.14,10.14,0,0,1,.17-1.5.85.85,0,0,1,.86-.77c1.84-.18,3.73-.09,5.58-.09a12.08,12.08,0,0,1,5.23.77,12.86,12.86,0,0,1,7,8.76,26.51,26.51,0,0,1,.6,9,17.72,17.72,0,0,1-.69,4.2C168.55,74.89,168.33,75.44,168.07,76Zm-12.48-4.46c0,.6,0,1.2,0,1.76,0,1.29-.09,2.58-.09,3.86s.3,1.12,2.19,1.12c2.83,0,6.05-3.82,6.05-9.31,0-1.16,0-2.32-.08-3.48a11.77,11.77,0,0,0-1.59-5.71,5,5,0,0,0-2.23-2.27,7.42,7.42,0,0,0-3.22-.69c-.95,0-1.07,0-1.12,1v.51c.13,2.75.05,4.85.05,8.11Z"/><path class="cls-1" d="M62.55,128.17a10.7,10.7,0,0,1-4.58-.94,7.75,7.75,0,0,1-1.52-1l1.78-4.83h.25a16,16,0,0,0,.86,2.87c.61,1.42,1.6,2.84,3.08,2.84a2.05,2.05,0,0,0,2.28-2c0-3.66-7.49-6.73-7.49-11.27,0-2.16,2-4.22,6.22-4.22a7.94,7.94,0,0,1,4.09,1,4.29,4.29,0,0,1,1.12.94l-1.78,3.81h-.25A10.85,10.85,0,0,0,66,113c-.48-1.17-1.16-2.37-2.46-2.37a1.8,1.8,0,0,0-2,1.78c0,3.66,7.49,6.73,7.49,11.3C69,126,66.86,128.17,62.55,128.17Z"/><path class="cls-1" d="M73.22,109.25l2.41,2.41-2.41,2.41-2.42-2.41Zm-1.91,18.54V115.34h3.81v12.45Z"/><path class="cls-1" d="M81.47,127.79h-3.3V115.34H82v7.11h.13c1.14-3.32,3.43-7.36,5.46-7.36,1,0,1.65.63,1.65,2.79v9.91H85.41v-8.64c0-.51-.12-.63-.25-.63C84.78,118.52,82.77,122,81.47,127.79Z"/><path class="cls-1" d="M96.72,126.52c.89,0,1.91-1,3.68-3.68l.77.38c-1.76,3-3.56,4.82-6.48,4.82-1.93,0-3.18-1.27-3.18-3.81,0-5.36,3.82-9.14,7.24-9.14a3,3,0,0,1,2.26,1,3.8,3.8,0,0,1,.66,1l-2,3h-.25a7.69,7.69,0,0,0-.43-1.83,2.55,2.55,0,0,0-2.24-1.86,8.85,8.85,0,0,0-.58,1.78,27.22,27.22,0,0,0-.56,6C95.58,126,96.09,126.52,96.72,126.52Z"/><path class="cls-1" d="M107,123.72c0,2.31.38,2.8.89,2.8,1.14,0,2.16-1,3.94-3.68l.76.38c-1.75,3-3.56,4.82-6.48,4.82-1.93,0-3.17-1.27-3.17-3.81,0-5.36,3.81-9.14,7.24-9.14,1.65,0,2.79,1.12,2.79,3.55l-6,4.58Zm0-1.52,2.29-1.78v-1c0-2.54-.38-2.93-.89-2.93S107,117.4,107,122.2Z"/><path class="cls-1" d="M59.18,142.41l6.35-2.16h.25v18H61.59V143H59.18Z"/><path class="cls-1" d="M68.58,146.34c0-3.55,2.67-6.22,6.6-6.22s6.48,2.64,6.48,8c0,5.79-4,9.93-11.43,10.54v-1c4.09-.38,6.61-2.86,7-7.11a4.28,4.28,0,0,1-.92.64,5.53,5.53,0,0,1-2.64.63C70.61,151.8,68.58,149.77,68.58,146.34Zm8.64,1.91c0-6-1.15-7.11-2.16-7.11s-2,1-2,4.82c0,3.56,1,4.57,2.15,4.57a2.44,2.44,0,0,0,1.45-.55,4.11,4.11,0,0,0,.59-.59Z"/><path class="cls-1" d="M86,148h.13a6.65,6.65,0,0,1,.91-.55,5.68,5.68,0,0,1,2.51-.59c3.94,0,6.22,2.26,6.22,5.59s-2.79,6.22-6.85,6.22A10.38,10.38,0,0,1,85,158a6.58,6.58,0,0,1-1.43-.71L85.35,153h.26a11.54,11.54,0,0,0,.55,2.36c.41,1.17,1.17,2.33,2.37,2.33,1.39,0,2.79-1.37,2.79-4.69,0-3.56-1.29-4.83-2.92-4.83a3.3,3.3,0,0,0-1.85.59,3.11,3.11,0,0,0-.69.58l-1-.66V140.5h10v2.8L86,141.39Z"/><path class="cls-1" d="M99,158.42l6.29-17.18-7.7,2.56v-3.33h12.18l-6.53,17.95Z"/></g></g></svg>